<?xml version="1.0" standalone="no"?><!DOCTYPE svg PUBLIC "-//W3C//DTD SVG 1.1//EN" "http://www.w3.org/Graphics/SVG/1.1/DTD/svg11.dtd"><svg width="100%" height="100%" viewBox="0 0 18 16" version="1.1" xmlns="http://www.w3.org/2000/svg" xmlns:xlink="http://www.w3.org/1999/xlink" xml:space="preserve" style="fill-rule:evenodd;clip-rule:evenodd;stroke-linejoin:round;stroke-miterlimit:1.41421;"><path id="Assigned" d="M0.725,15.76c0,-0.032 0,-0.064 0.002,-0.095c-0.005,-1.118 -0.062,-2.493 1.09,-3.436c0.979,-0.801 3.043,-1.232 4.679,-1.494c0.03,-0.005 0.061,-0.01 0.091,-0.015c0.215,-0.034 0.799,-1.171 0.848,-1.417c0.001,-0.002 0.001,-0.003 0.002,-0.004c-0.613,-0.399 -1.176,-0.986 -1.54,-1.752c-0.738,-1.551 -0.66,-3.833 -0.66,-4.619c0,-1.569 1.821,-2.844 4.065,-2.848l0,0l0.001,0l0.001,0l0,0l0.001,0l0.004,0l0.005,0l0,0l0.002,0l0,0c2.245,0.004 4.066,1.279 4.066,2.848c0,0.786 0.078,3.068 -0.66,4.619c-0.365,0.766 -0.928,1.353 -1.54,1.752c0.001,0.001 0.001,0.002 0.001,0.004c0.05,0.246 0.634,1.383 0.849,1.417c0.03,0.005 0.061,0.01 0.091,0.015c1.635,0.262 3.7,0.693 4.679,1.494c1.152,0.943 1.094,2.318 1.09,3.436c0.001,0.031 0.002,0.063 0.002,0.095l-17.169,0Z" style="fill:#000;"/></svg>