<?xml version="1.0" standalone="no"?><!DOCTYPE svg PUBLIC "-//W3C//DTD SVG 1.1//EN" "http://www.w3.org/Graphics/SVG/1.1/DTD/svg11.dtd"><svg width="100%" height="100%" viewBox="0 0 18 16" version="1.1" xmlns="http://www.w3.org/2000/svg" xmlns:xlink="http://www.w3.org/1999/xlink" xml:space="preserve" style="fill-rule:evenodd;clip-rule:evenodd;stroke-linejoin:round;stroke-miterlimit:1.41421;"><path id="Unassigned" d="M8.774,0.08l0,0l0.105,0.001l0.104,0.003l0.104,0.005l0.103,0.006l0.102,0.008l0.101,0.011l0.101,0.011l0.099,0.014l0.099,0.015l0.098,0.017l0.097,0.019l0.096,0.02l0.095,0.021l0.094,0.024l0.093,0.025l0.091,0.026l0.091,0.028l0.089,0.029l0.089,0.031l0.087,0.032l0.085,0.034l0.085,0.035l0.083,0.036l0.082,0.038l0.08,0.039l0.079,0.04l0.078,0.042l0.076,0.043l0.074,0.044l0.073,0.046l0.072,0.046l0.07,0.048l0.068,0.049l0.066,0.05l0.065,0.051l0.063,0.052l0.061,0.053l0.06,0.055l0.057,0.055l0.056,0.056l0.054,0.057l0.052,0.059l0.05,0.059l0.048,0.06l0.046,0.061l0.043,0.061l0.042,0.063l0.04,0.063l0.037,0.065l0.036,0.064l0.033,0.066l0.031,0.067l0.028,0.067l0.026,0.068l0.024,0.068l0.022,0.069l0.019,0.07l0.017,0.07l0.014,0.071l0.011,0.071l0.01,0.072l0.006,0.073l0.004,0.072l0.001,0.074l0.001,0.164l0.001,0.196l0.001,0.225l-0.002,0.25l-0.002,0.133l-0.003,0.139l-0.004,0.143l-0.006,0.148l-0.007,0.151l-0.009,0.155l-0.01,0.158l-0.013,0.16l-0.015,0.163l-0.017,0.165l-0.019,0.166l-0.022,0.167l-0.025,0.168l-0.014,0.084l-0.014,0.084l-0.016,0.084l-0.016,0.083l-0.016,0.084l-0.018,0.083l-0.019,0.084l-0.019,0.082l-0.02,0.083l-0.022,0.082l-0.022,0.082l-0.023,0.081l-0.024,0.08l-0.025,0.08l-0.027,0.08l-0.027,0.078l-0.028,0.078l-0.03,0.077l-0.03,0.076l-0.032,0.075l-0.033,0.075l-0.034,0.073l-0.034,0.071l-0.036,0.07l-0.037,0.07l-0.038,0.068l-0.039,0.067l-0.04,0.066l-0.042,0.065l-0.042,0.064l-0.043,0.062l-0.044,0.062l-0.045,0.061l-0.045,0.06l-0.047,0.058l-0.047,0.058l-0.048,0.056l-0.049,0.055l-0.05,0.055l-0.05,0.053l-0.051,0.052l-0.052,0.051l-0.052,0.05l-0.053,0.049l-0.054,0.048l-0.053,0.046l-0.055,0.046l-0.055,0.045l-0.055,0.043l-0.056,0.042l-0.056,0.041l-0.057,0.041l-0.057,0.039l-0.057,0.038l0.007,0.029l0.009,0.031l0.012,0.035l0.015,0.039l0.017,0.043l0.019,0.046l0.045,0.101l0.053,0.111l0.058,0.116l0.062,0.12l0.066,0.121l0.034,0.059l0.034,0.059l0.034,0.057l0.035,0.056l0.034,0.053l0.034,0.051l0.033,0.048l0.032,0.045l0.032,0.041l0.031,0.038l0.029,0.033l0.028,0.028l0.027,0.024l0.013,0.01l0.012,0.008l0.012,0.007l0.011,0.006l0.011,0.004l0.011,0.002l0.091,0.015l0.311,0.051l0.159,0.027l0.16,0.029l0.162,0.029l0.163,0.031l0.164,0.031l0.164,0.033l0.165,0.035l0.164,0.035l0.165,0.037l0.164,0.039l0.163,0.04l0.162,0.041l0.16,0.043l0.159,0.044l0.157,0.046l0.155,0.047l0.153,0.05l0.149,0.05l0.147,0.053l0.143,0.054l0.07,0.028l0.07,0.029l0.068,0.028l0.068,0.03l0.066,0.029l0.065,0.03l0.064,0.031l0.063,0.031l0.062,0.032l0.061,0.032l0.059,0.033l0.059,0.033l0.056,0.033l0.056,0.034l0.054,0.035l0.053,0.035l0.051,0.036l0.05,0.036l0.048,0.037l0.047,0.037l0.053,0.045l0.051,0.045l0.05,0.045l0.048,0.047l0.046,0.047l0.045,0.047l0.043,0.048l0.041,0.049l0.04,0.049l0.039,0.049l0.037,0.05l0.035,0.05l0.034,0.051l0.033,0.052l0.031,0.051l0.03,0.053l0.029,0.052l0.027,0.053l0.027,0.053l0.025,0.054l0.023,0.054l0.023,0.054l0.021,0.054l0.021,0.055l0.019,0.055l0.018,0.055l0.017,0.055l0.017,0.056l0.015,0.056l0.014,0.056l0.014,0.056l0.012,0.056l0.012,0.057l0.011,0.056l0.01,0.057l0.009,0.057l0.017,0.113l0.013,0.114l0.012,0.114l0.009,0.114l0.007,0.113l0.005,0.113l0.004,0.113l0.003,0.111l0.001,0.112l0.001,0.11l-0.001,0.217l-0.001,0.213l0.001,0.047l0.001,0.048l-17.169,0l0,-0.048l0.001,-0.047l-0.001,-0.213l0,-0.217l0,-0.11l0.002,-0.112l0.002,-0.111l0.004,-0.113l0.005,-0.113l0.007,-0.113l0.009,-0.114l0.012,-0.114l0.014,-0.114l0.016,-0.113l0.009,-0.057l0.01,-0.057l0.011,-0.056l0.012,-0.057l0.013,-0.056l0.013,-0.056l0.014,-0.056l0.016,-0.056l0.016,-0.056l0.017,-0.055l0.018,-0.055l0.019,-0.055l0.021,-0.055l0.021,-0.054l0.023,-0.054l0.024,-0.054l0.025,-0.054l0.026,-0.053l0.027,-0.053l0.029,-0.052l0.03,-0.053l0.031,-0.051l0.033,-0.052l0.034,-0.051l0.036,-0.05l0.037,-0.05l0.038,-0.049l0.04,-0.049l0.042,-0.049l0.043,-0.048l0.044,-0.047l0.047,-0.047l0.048,-0.047l0.049,-0.045l0.052,-0.045l0.053,-0.045l0.046,-0.037l0.049,-0.037l0.049,-0.036l0.052,-0.036l0.052,-0.035l0.054,-0.035l0.056,-0.034l0.057,-0.033l0.058,-0.033l0.059,-0.033l0.061,-0.032l0.062,-0.032l0.063,-0.031l0.064,-0.031l0.065,-0.03l0.067,-0.029l0.067,-0.03l0.069,-0.028l0.069,-0.029l0.07,-0.028l0.143,-0.054l0.147,-0.053l0.15,-0.05l0.152,-0.05l0.155,-0.047l0.157,-0.046l0.159,-0.044l0.16,-0.043l0.162,-0.041l0.164,-0.04l0.163,-0.039l0.165,-0.037l0.165,-0.035l0.164,-0.035l0.165,-0.033l0.163,-0.031l0.163,-0.031l0.162,-0.029l0.161,-0.029l0.158,-0.027l0.312,-0.051l0.091,-0.015l0.01,-0.002l0.011,-0.004l0.011,-0.006l0.012,-0.007l0.012,-0.008l0.013,-0.01l0.027,-0.024l0.028,-0.028l0.03,-0.033l0.03,-0.038l0.032,-0.041l0.032,-0.045l0.034,-0.048l0.033,-0.051l0.034,-0.053l0.035,-0.056l0.034,-0.057l0.034,-0.059l0.034,-0.059l0.066,-0.121l0.063,-0.12l0.058,-0.116l0.052,-0.111l0.045,-0.101l0.019,-0.046l0.017,-0.043l0.015,-0.039l0.012,-0.035l0.009,-0.031l0.006,-0.025l0.001,-0.004l-0.057,-0.038l-0.057,-0.039l-0.056,-0.041l-0.057,-0.041l-0.056,-0.042l-0.055,-0.043l-0.055,-0.045l-0.054,-0.046l-0.054,-0.046l-0.054,-0.048l-0.053,-0.049l-0.052,-0.05l-0.051,-0.051l-0.051,-0.052l-0.051,-0.053l-0.049,-0.055l-0.049,-0.055l-0.048,-0.056l-0.048,-0.058l-0.046,-0.058l-0.046,-0.06l-0.045,-0.061l-0.044,-0.062l-0.043,-0.062l-0.042,-0.064l-0.041,-0.065l-0.04,-0.066l-0.04,-0.067l-0.038,-0.068l-0.037,-0.07l-0.035,-0.07l-0.035,-0.071l-0.034,-0.073l-0.033,-0.075l-0.032,-0.075l-0.03,-0.076l-0.03,-0.077l-0.028,-0.078l-0.027,-0.078l-0.026,-0.08l-0.026,-0.08l-0.024,-0.08l-0.023,-0.081l-0.022,-0.082l-0.021,-0.082l-0.021,-0.083l-0.019,-0.082l-0.019,-0.084l-0.017,-0.083l-0.017,-0.084l-0.016,-0.083l-0.015,-0.084l-0.015,-0.084l-0.013,-0.084l-0.025,-0.168l-0.023,-0.167l-0.019,-0.166l-0.017,-0.165l-0.015,-0.163l-0.013,-0.16l-0.01,-0.158l-0.009,-0.155l-0.007,-0.151l-0.006,-0.148l-0.004,-0.143l-0.003,-0.139l-0.002,-0.133l-0.002,-0.25l0.001,-0.225l0.001,-0.196l0.001,-0.164l0.001,-0.074l0.004,-0.072l0.007,-0.073l0.009,-0.072l0.011,-0.071l0.015,-0.071l0.016,-0.07l0.019,-0.07l0.022,-0.069l0.024,-0.068l0.026,-0.068l0.029,-0.067l0.03,-0.067l0.034,-0.066l0.035,-0.064l0.037,-0.065l0.04,-0.063l0.042,-0.063l0.044,-0.061l0.046,-0.061l0.047,-0.06l0.05,-0.059l0.052,-0.059l0.054,-0.057l0.056,-0.056l0.058,-0.055l0.059,-0.055l0.061,-0.053l0.063,-0.052l0.065,-0.051l0.067,-0.05l0.068,-0.049l0.069,-0.048l0.072,-0.046l0.073,-0.046l0.074,-0.044l0.076,-0.043l0.078,-0.042l0.079,-0.04l0.08,-0.039l0.082,-0.038l0.083,-0.036l0.085,-0.035l0.086,-0.034l0.087,-0.032l0.088,-0.031l0.089,-0.029l0.091,-0.028l0.092,-0.026l0.093,-0.025l0.093,-0.024l0.095,-0.021l0.096,-0.02l0.097,-0.019l0.098,-0.017l0.099,-0.015l0.1,-0.014l0.1,-0.011l0.102,-0.011l0.102,-0.008l0.102,-0.006l0.104,-0.005l0.104,-0.003l0.105,-0.001l0,0l0.001,0l0.001,0l0,0l0,0l0.005,0l0.005,0l0,0l0.002,0l0,0ZM8.675,1.081l-0.087,0.002l-0.086,0.004l-0.085,0.006l-0.084,0.006l-0.084,0.009l-0.083,0.01l-0.082,0.011l-0.081,0.012l-0.08,0.014l-0.079,0.015l-0.078,0.017l-0.078,0.017l-0.076,0.019l-0.075,0.02l-0.074,0.021l-0.073,0.023l-0.072,0.023l-0.07,0.025l-0.069,0.026l-0.068,0.026l-0.066,0.028l-0.066,0.028l-0.063,0.03l-0.063,0.03l-0.061,0.031l-0.059,0.032l-0.058,0.033l-0.056,0.033l-0.055,0.034l-0.053,0.035l-0.052,0.035l-0.049,0.036l-0.049,0.036l-0.046,0.037l-0.045,0.037l-0.043,0.037l-0.041,0.038l-0.04,0.038l-0.037,0.038l-0.036,0.038l-0.034,0.038l-0.033,0.039l-0.03,0.038l-0.029,0.038l-0.028,0.039l-0.025,0.038l-0.024,0.038l-0.022,0.038l-0.02,0.037l-0.019,0.038l-0.018,0.037l-0.015,0.037l-0.015,0.037l-0.012,0.036l-0.012,0.037l-0.01,0.036l-0.008,0.037l-0.008,0.036l-0.005,0.036l-0.005,0.036l-0.003,0.037l-0.002,0.037l-0.001,0.048l-0.001,0.158l-0.001,0.195l-0.001,0.219l0.002,0.241l0.002,0.126l0.003,0.131l0.004,0.136l0.005,0.138l0.007,0.143l0.008,0.144l0.01,0.147l0.012,0.149l0.013,0.151l0.016,0.151l0.018,0.152l0.02,0.151l0.023,0.154l0.012,0.073l0.013,0.075l0.013,0.075l0.014,0.074l0.015,0.074l0.016,0.073l0.016,0.073l0.017,0.072l0.017,0.071l0.018,0.071l0.019,0.069l0.02,0.069l0.02,0.068l0.021,0.066l0.022,0.066l0.022,0.064l0.023,0.064l0.024,0.062l0.024,0.06l0.025,0.059l0.026,0.058l0.026,0.056l0.026,0.055l0.028,0.053l0.028,0.053l0.029,0.052l0.03,0.051l0.03,0.05l0.032,0.05l0.032,0.049l0.033,0.048l0.033,0.047l0.035,0.046l0.035,0.046l0.036,0.045l0.036,0.044l0.037,0.043l0.037,0.043l0.039,0.042l0.038,0.041l0.039,0.04l0.04,0.039l0.041,0.038l0.04,0.038l0.041,0.037l0.042,0.036l0.042,0.035l0.042,0.035l0.043,0.033l0.043,0.033l0.044,0.031l0.043,0.031l0.044,0.03l0.051,0.034l0.066,0.048l0.062,0.053l0.057,0.058l0.053,0.062l0.047,0.066l0.042,0.07l0.036,0.074l0.029,0.076l0.024,0.078l0.017,0.079l0.01,0.081l0.004,0.082l-0.003,0.081l-0.009,0.081l-0.016,0.08l-0.001,0.004l-0.012,0.052l-0.023,0.075l-0.022,0.066l-0.024,0.062l-0.024,0.061l-0.027,0.064l-0.054,0.122l-0.062,0.13l-0.067,0.135l-0.071,0.137l-0.075,0.136l-0.04,0.071l-0.04,0.069l-0.041,0.068l-0.042,0.067l-0.042,0.067l-0.044,0.066l-0.045,0.065l-0.047,0.065l-0.05,0.065l-0.054,0.066l-0.06,0.068l-0.071,0.071l-0.077,0.069l-0.062,0.048l-0.063,0.043l-0.077,0.045l-0.048,0.023l-0.046,0.021l-0.046,0.018l-0.011,0.004l-0.058,0.019l-0.059,0.016l-0.043,0.01l-0.122,0.02l-0.308,0.05l-0.153,0.027l-0.156,0.027l-0.156,0.028l-0.157,0.03l-0.158,0.03l-0.157,0.032l-0.158,0.033l-0.157,0.034l-0.156,0.035l-0.155,0.036l-0.153,0.038l-0.152,0.039l-0.15,0.039l-0.148,0.042l-0.144,0.042l-0.142,0.043l-0.138,0.045l-0.134,0.046l-0.13,0.046l-0.128,0.049l-0.059,0.023l-0.06,0.024l-0.058,0.025l-0.057,0.025l-0.056,0.025l-0.054,0.025l-0.052,0.025l-0.051,0.025l-0.05,0.025l-0.047,0.025l-0.046,0.025l-0.044,0.026l-0.043,0.025l-0.04,0.024l-0.039,0.025l-0.036,0.024l-0.035,0.024l-0.032,0.024l-0.03,0.023l-0.029,0.023l-0.035,0.03l-0.034,0.029l-0.032,0.03l-0.031,0.03l-0.03,0.03l-0.028,0.03l-0.028,0.03l-0.026,0.031l-0.025,0.031l-0.024,0.03l-0.023,0.032l-0.022,0.031l-0.021,0.032l-0.02,0.032l-0.02,0.032l-0.019,0.033l-0.018,0.033l-0.018,0.034l-0.016,0.034l-0.017,0.035l-0.015,0.035l-0.015,0.036l-0.014,0.036l-0.014,0.037l-0.013,0.037l-0.013,0.038l-0.012,0.039l-0.011,0.039l-0.011,0.04l-0.01,0.04l-0.01,0.041l-0.009,0.041l-0.009,0.043l-0.008,0.042l-0.008,0.044l-0.007,0.041l-0.013,0.092l-0.011,0.092l-0.009,0.093l-0.008,0.096l-0.006,0.097l-0.002,0.029l15.148,0l-0.002,-0.029l-0.006,-0.097l-0.007,-0.096l-0.01,-0.093l-0.011,-0.092l-0.013,-0.092l-0.007,-0.041l-0.008,-0.044l-0.008,-0.042l-0.009,-0.042l-0.009,-0.042l-0.01,-0.041l-0.01,-0.04l-0.011,-0.04l-0.011,-0.039l-0.012,-0.039l-0.013,-0.038l-0.013,-0.037l-0.014,-0.037l-0.014,-0.037l-0.015,-0.035l-0.015,-0.035l-0.016,-0.035l-0.017,-0.034l-0.018,-0.034l-0.018,-0.033l-0.019,-0.033l-0.019,-0.032l-0.021,-0.032l-0.021,-0.032l-0.022,-0.031l-0.023,-0.032l-0.024,-0.03l-0.025,-0.031l-0.026,-0.031l-0.027,-0.03l-0.029,-0.03l-0.03,-0.03l-0.03,-0.03l-0.033,-0.03l-0.034,-0.029l-0.035,-0.03l-0.028,-0.023l-0.031,-0.023l-0.032,-0.024l-0.035,-0.024l-0.036,-0.024l-0.039,-0.025l-0.04,-0.024l-0.042,-0.025l-0.045,-0.026l-0.045,-0.025l-0.048,-0.025l-0.049,-0.025l-0.051,-0.025l-0.053,-0.025l-0.054,-0.025l-0.056,-0.025l-0.057,-0.025l-0.058,-0.025l-0.06,-0.024l-0.058,-0.023l-0.128,-0.049l-0.131,-0.046l-0.134,-0.046l-0.138,-0.045l-0.142,-0.043l-0.144,-0.042l-0.148,-0.042l-0.149,-0.039l-0.152,-0.039l-0.154,-0.038l-0.155,-0.036l-0.156,-0.035l-0.157,-0.034l-0.158,-0.033l-0.157,-0.032l-0.158,-0.03l-0.157,-0.03l-0.156,-0.028l-0.156,-0.027l-0.153,-0.027l-0.307,-0.05l-0.123,-0.02l-0.043,-0.01l-0.059,-0.016l-0.058,-0.019l-0.011,-0.004l-0.046,-0.018l-0.046,-0.021l-0.048,-0.023l-0.076,-0.045l-0.063,-0.043l-0.062,-0.048l-0.078,-0.069l-0.071,-0.071l-0.06,-0.068l-0.054,-0.066l-0.05,-0.065l-0.047,-0.065l-0.045,-0.065l-0.043,-0.066l-0.043,-0.067l-0.042,-0.067l-0.041,-0.068l-0.04,-0.069l-0.04,-0.071l-0.074,-0.136l-0.072,-0.137l-0.067,-0.135l-0.062,-0.13l-0.054,-0.122l-0.027,-0.064l-0.024,-0.061l-0.023,-0.062l-0.023,-0.066l-0.022,-0.075l-0.013,-0.052l-0.001,-0.005l-0.016,-0.079l-0.009,-0.081l-0.003,-0.082l0.004,-0.081l0.01,-0.081l0.018,-0.08l0.023,-0.078l0.03,-0.076l0.036,-0.073l0.041,-0.07l0.048,-0.066l0.052,-0.063l0.058,-0.057l0.062,-0.053l0.066,-0.048l0.05,-0.034l0.044,-0.03l0.044,-0.031l0.043,-0.031l0.043,-0.033l0.043,-0.033l0.042,-0.035l0.042,-0.035l0.042,-0.036l0.041,-0.037l0.041,-0.038l0.04,-0.038l0.04,-0.039l0.039,-0.04l0.039,-0.041l0.038,-0.042l0.037,-0.043l0.037,-0.043l0.037,-0.044l0.035,-0.045l0.035,-0.046l0.035,-0.046l0.033,-0.047l0.033,-0.048l0.032,-0.049l0.032,-0.05l0.03,-0.05l0.03,-0.051l0.029,-0.052l0.029,-0.053l0.027,-0.053l0.026,-0.055l0.027,-0.056l0.025,-0.058l0.025,-0.059l0.024,-0.06l0.024,-0.062l0.023,-0.064l0.022,-0.064l0.022,-0.066l0.021,-0.066l0.02,-0.068l0.02,-0.069l0.019,-0.069l0.018,-0.071l0.018,-0.071l0.016,-0.072l0.017,-0.073l0.015,-0.073l0.015,-0.074l0.014,-0.074l0.014,-0.075l0.013,-0.075l0.011,-0.073l0.023,-0.154l0.021,-0.151l0.017,-0.152l0.016,-0.151l0.014,-0.151l0.011,-0.149l0.01,-0.147l0.008,-0.144l0.007,-0.143l0.005,-0.138l0.004,-0.136l0.003,-0.131l0.002,-0.126l0.002,-0.241l-0.001,-0.219l-0.001,-0.195l0,-0.158l-0.001,-0.048l-0.002,-0.037l-0.004,-0.037l-0.004,-0.036l-0.006,-0.036l-0.007,-0.036l-0.009,-0.037l-0.01,-0.036l-0.011,-0.037l-0.013,-0.036l-0.014,-0.037l-0.016,-0.037l-0.017,-0.037l-0.019,-0.038l-0.021,-0.037l-0.022,-0.038l-0.024,-0.038l-0.025,-0.038l-0.027,-0.039l-0.029,-0.038l-0.031,-0.038l-0.032,-0.039l-0.035,-0.038l-0.036,-0.038l-0.037,-0.038l-0.04,-0.038l-0.041,-0.038l-0.043,-0.037l-0.045,-0.037l-0.046,-0.037l-0.048,-0.036l-0.05,-0.036l-0.052,-0.035l-0.053,-0.035l-0.055,-0.034l-0.056,-0.033l-0.058,-0.033l-0.059,-0.032l-0.061,-0.031l-0.062,-0.03l-0.064,-0.03l-0.065,-0.028l-0.067,-0.028l-0.068,-0.026l-0.069,-0.026l-0.07,-0.025l-0.072,-0.023l-0.073,-0.023l-0.074,-0.021l-0.075,-0.02l-0.076,-0.019l-0.077,-0.017l-0.079,-0.017l-0.079,-0.015l-0.08,-0.014l-0.081,-0.012l-0.082,-0.011l-0.083,-0.01l-0.084,-0.009l-0.084,-0.006l-0.085,-0.006l-0.086,-0.004l-0.087,-0.002l-0.092,-0.001l-0.092,0.001ZM8.697,1.08l0.07,0l0,0l-0.005,0l0.002,0l0,0l0.001,0l0,-0.001l-0.004,0.001l0.003,0l-0.003,0l-0.004,0l0.004,0l-0.026,-0.002l-0.038,-0.001l-0.01,-0.001l-0.006,-0.001l-0.018,-0.002l-0.045,-0.005l0.079,0.012ZM8.771,1.08l0,0l0.003,0l0.003,0l-0.004,0l-0.002,0Z" style="fill:#000;"/></svg>